<svg width="32" height="32" viewBox="0 0 32 32" fill="none" xmlns="http://www.w3.org/2000/svg">
<path d="M18.1169 16.1651C18.0949 16.1445 18.0775 16.1196 18.0655 16.092C18.0536 16.0644 18.0474 16.0347 18.0474 16.0046C18.0474 15.9745 18.0536 15.9447 18.0655 15.9171C18.0775 15.8895 18.0949 15.8647 18.1169 15.8441L26.609 7.34277C26.7377 7.21567 26.8398 7.0643 26.9096 6.89743C26.9793 6.73056 27.0152 6.55151 27.0152 6.37066C27.0152 6.18981 26.9793 6.01076 26.9096 5.84389C26.8398 5.67702 26.7377 5.52565 26.609 5.39856C26.3499 5.14317 26.0007 5 25.6369 5C25.2731 5 24.9239 5.14317 24.6648 5.39856L16.1727 13.8907C16.1513 13.9129 16.1256 13.9306 16.0973 13.9426C16.0689 13.9547 16.0384 13.9609 16.0076 13.9609C15.9768 13.9609 15.9463 13.9547 15.9179 13.9426C15.8895 13.9306 15.8639 13.9129 15.8425 13.8907L7.35035 5.39856C7.09125 5.14317 6.74205 5 6.37824 5C6.01444 5 5.66524 5.14317 5.40614 5.39856C5.27748 5.52565 5.17533 5.67702 5.10562 5.84389C5.0359 6.01076 5 6.18981 5 6.37066C5 6.55151 5.0359 6.73056 5.10562 6.89743C5.17533 7.0643 5.27748 7.21567 5.40614 7.34277L13.8983 15.8441C13.9202 15.8647 13.9377 15.8895 13.9497 15.9171C13.9616 15.9447 13.9678 15.9745 13.9678 16.0046C13.9678 16.0347 13.9616 16.0644 13.9497 16.092C13.9377 16.1196 13.9202 16.1445 13.8983 16.1651L5.40614 24.6572C5.27748 24.7843 5.17533 24.9357 5.10562 25.1026C5.0359 25.2694 5 25.4485 5 25.6293C5 25.8102 5.0359 25.9892 5.10562 26.1561C5.17533 26.323 5.27748 26.4743 5.40614 26.6014C5.66524 26.8568 6.01444 27 6.37824 27C6.74205 27 7.09125 26.8568 7.35035 26.6014L15.8425 18.1093C15.8639 18.0871 15.8895 18.0694 15.9179 18.0574C15.9463 18.0453 15.9768 18.0391 16.0076 18.0391C16.0384 18.0391 16.0689 18.0453 16.0973 18.0574C16.1256 18.0694 16.1513 18.0871 16.1727 18.1093L24.6648 26.6014C24.9239 26.8568 25.2731 27 25.6369 27C26.0007 27 26.3499 26.8568 26.609 26.6014C26.7377 26.4743 26.8398 26.323 26.9096 26.1561C26.9793 25.9892 27.0152 25.8102 27.0152 25.6293C27.0152 25.4485 26.9793 25.2694 26.9096 25.1026C26.8398 24.9357 26.7377 24.7843 26.609 24.6572L18.1169 16.1651Z" fill="white"/>
</svg>
